<?xml version="1.0" encoding="UTF-8"?>
<svg id="Capa_1" xmlns="http://www.w3.org/2000/svg" version="1.1" viewBox="0 0 39 39.9">
  <!-- Generator: Adobe Illustrator 29.3.1, SVG Export Plug-In . SVG Version: 2.1.0 Build 151)  -->
  <defs>
    <style>
      .st0 {
        font-family: ErasITC-Bold, 'Eras Bold ITC';
        font-size: 50px;
        font-weight: 700;
      }

      .st0, .st1 {
        fill: #115528;
      }

      .st0, .st2 {
        display: none;
      }

      .st3 {
        fill: #fff;
      }

      .st4 {
        fill: #067533;
      }

      .st5 {
        fill: #2da836;
      }
    </style>
  </defs>
  <path class="st1" d="M3,38.7C-1.1,6.7,5.7-1.4,37.8,3.2c4.4,32.6-3.3,39.9-34.7,35.5h0Z"/>
  <text class="st0" transform="translate(15.4 47.5)"><tspan x="0" y="0">N</tspan></text>
  <path class="st4" d="M2.3,37.5C-1.9,5.5,4.9-2.5,37,2c4.4,32.6-3.3,39.9-34.7,35.5h0Z"/>
  <path class="st5" d="M1.1,36.7C-3,4.7,3.8-3.4,35.9,1.2c4.4,32.6-3.3,39.9-34.7,35.5h0Z"/>
  <g>
    <path class="st3" d="M15.1,33.4c-.4.1-.9.2-1.4.2-2.7,0-8.8,1-9.3-1.4-.2-5.8,0-19.8,0-25.3-.1-1.4,1-2.1,3-2.3,2.2-.3,5.3-.1,7.3.3,1.1.2,1.9.8,1.7,1.7,0,3.6.3,11.2.3,17.8,0,3-.1,5.7-.5,7.8-.1.5-.4.9-.9,1.1h-.1Z"/>
    <polygon class="st3" points="20.3 32.2 29.4 30.9 16.2 5.8 7.2 7.1 20.3 32.2"/>
    <path class="st3" d="M30.9,33.1c-.4.1-.9.2-1.4.2-2.7,0-8.8,1-9.3-1.4-.2-5.8,0-19.8,0-25.3-.1-1.4,1-2.1,3-2.3,2.2-.3,5.3-.1,7.3.3,1.1.2,1.9.8,1.7,1.7,0,3.6.3,11.2.3,17.8,0,3-.1,5.7-.5,7.8-.1.5-.4.9-.9,1.1h-.1Z"/>
  </g>
  <g class="st2">
    <path class="st3" d="M21,27.5c-3.6-4.6,8.8-1.4,4.6-6.3-5.1-4.1-7-10.6,1.3-12.1,5.8-1.1,10.5,3.2,2.8,4.9-2.9,1.9,3,5.1,3.8,7.3,3.4,6.9-8.4,10.1-12.4,6.2Z"/>
    <path class="st4" d="M20.2,27.1c-3.5-6,4.3-1.3,6.2-4.2.3-2.5-3.9-4.1-5-6.2-4.9-6.7,7.4-11.4,11.4-6.9,1.8,3.8-2.6,2.5-4.7,3.1-1.9.7-.7,2.6.4,3.5,11.1,7.1-.2,15.6-8.3,10.7Z"/>
  </g>
</svg>